<svg xmlns="http://www.w3.org/2000/svg" viewBox="0 -0.5 170 250" shape-rendering="crispEdges">
<metadata>Made with Pixels to Svg https://codepen.io/shshaw/pen/XbxvNj</metadata>
<path stroke="#9f9f9f" d="M0 0h170M0 1h170M0 2h170M0 3h170M0 4h170M0 5h170M0 6h170M0 7h170M0 8h170M0 9h170M0 10h10M110 10h60M0 11h10M110 11h60M0 12h10M110 12h60M0 13h10M110 13h60M0 14h10M110 14h60M0 15h10M110 15h60M0 16h10M110 16h60M0 17h10M110 17h60M0 18h10M110 18h60M0 19h10M110 19h60M0 20h10M110 20h10M160 20h10M0 21h10M110 21h10M160 21h10M0 22h10M110 22h10M160 22h10M0 23h10M110 23h10M160 23h10M0 24h10M110 24h10M160 24h10M0 25h10M110 25h10M160 25h10M0 26h10M110 26h10M160 26h10M0 27h10M110 27h10M160 27h10M0 28h10M110 28h10M160 28h10M0 29h10M110 29h10M160 29h10M0 30h120M160 30h10M0 31h120M160 31h10M0 32h120M160 32h10M0 33h120M160 33h10M0 34h120M160 34h10M0 35h120M160 35h10M0 36h120M160 36h10M0 37h120M160 37h10M0 38h120M160 38h10M0 39h120M160 39h10M0 40h10M110 40h10M160 40h10M0 41h10M110 41h10M160 41h10M0 42h10M110 42h10M160 42h10M0 43h10M110 43h10M160 43h10M0 44h10M110 44h10M160 44h10M0 45h10M110 45h10M160 45h10M0 46h10M110 46h10M160 46h10M0 47h10M110 47h10M160 47h10M0 48h10M110 48h10M160 48h10M0 49h10M110 49h10M160 49h10M0 50h10M110 50h60M0 51h10M110 51h60M0 52h10M110 52h60M0 53h10M110 53h60M0 54h10M110 54h60M0 55h10M110 55h60M0 56h10M110 56h60M0 57h10M110 57h60M0 58h10M110 58h60M0 59h10M110 59h60M0 60h10M110 60h10M160 60h10M0 61h10M110 61h10M160 61h10M0 62h10M110 62h10M160 62h10M0 63h10M110 63h10M160 63h10M0 64h10M110 64h10M160 64h10M0 65h10M110 65h10M160 65h10M0 66h10M110 66h10M160 66h10M0 67h10M110 67h10M160 67h10M0 68h10M110 68h10M160 68h10M0 69h10M110 69h10M160 69h10M0 70h10M110 70h10M160 70h10M0 71h10M110 71h10M160 71h10M0 72h10M110 72h10M160 72h10M0 73h10M110 73h10M160 73h10M0 74h10M110 74h10M160 74h10M0 75h10M110 75h10M160 75h10M0 76h10M110 76h10M160 76h10M0 77h10M110 77h10M160 77h10M0 78h10M110 78h10M160 78h10M0 79h10M110 79h10M160 79h10M0 80h10M110 80h10M160 80h10M0 81h10M110 81h10M160 81h10M0 82h10M110 82h10M160 82h10M0 83h10M110 83h10M160 83h10M0 84h10M110 84h10M160 84h10M0 85h10M110 85h10M160 85h10M0 86h10M110 86h10M160 86h10M0 87h10M110 87h10M160 87h10M0 88h10M110 88h10M160 88h10M0 89h10M110 89h10M160 89h10M0 90h10M110 90h60M0 91h10M110 91h60M0 92h10M110 92h60M0 93h10M110 93h60M0 94h10M110 94h60M0 95h10M110 95h60M0 96h10M110 96h60M0 97h10M110 97h60M0 98h10M110 98h60M0 99h10M110 99h60M0 100h10M110 100h10M160 100h10M0 101h10M110 101h10M160 101h10M0 102h10M110 102h10M160 102h10M0 103h10M110 103h10M160 103h10M0 104h10M110 104h10M160 104h10M0 105h10M110 105h10M160 105h10M0 106h10M110 106h10M160 106h10M0 107h10M110 107h10M160 107h10M0 108h10M110 108h10M160 108h10M0 109h10M110 109h10M160 109h10M0 110h10M110 110h10M160 110h10M0 111h10M110 111h10M160 111h10M0 112h10M110 112h10M160 112h10M0 113h10M110 113h10M160 113h10M0 114h10M110 114h10M160 114h10M0 115h10M110 115h10M160 115h10M0 116h10M110 116h10M160 116h10M0 117h10M110 117h10M160 117h10M0 118h10M110 118h10M160 118h10M0 119h10M110 119h10M160 119h10M0 120h10M110 120h10M160 120h10M0 121h10M110 121h10M160 121h10M0 122h10M110 122h10M160 122h10M0 123h10M110 123h10M160 123h10M0 124h10M110 124h10M160 124h10M0 125h10M110 125h10M160 125h10M0 126h10M110 126h10M160 126h10M0 127h10M110 127h10M160 127h10M0 128h10M110 128h10M160 128h10M0 129h10M110 129h10M160 129h10M0 130h10M110 130h60M0 131h10M110 131h60M0 132h10M110 132h60M0 133h10M110 133h60M0 134h10M110 134h60M0 135h10M110 135h60M0 136h10M110 136h60M0 137h10M110 137h60M0 138h10M110 138h60M0 139h10M110 139h60M0 140h10M110 140h60M0 141h10M110 141h60M0 142h10M110 142h60M0 143h10M110 143h60M0 144h10M110 144h60M0 145h10M110 145h60M0 146h10M110 146h60M0 147h10M110 147h60M0 148h10M110 148h60M0 149h10M110 149h60M0 150h10M110 150h60M0 151h10M110 151h60M0 152h10M110 152h60M0 153h10M110 153h60M0 154h10M110 154h60M0 155h10M110 155h60M0 156h10M110 156h60M0 157h10M110 157h60M0 158h10M110 158h60M0 159h10M110 159h60M0 160h10M110 160h60M0 161h10M110 161h60M0 162h10M110 162h60M0 163h10M110 163h60M0 164h10M110 164h60M0 165h10M110 165h60M0 166h10M110 166h60M0 167h10M110 167h60M0 168h10M110 168h60M0 169h10M110 169h60M0 170h10M110 170h60M0 171h10M110 171h60M0 172h10M110 172h60M0 173h10M110 173h60M0 174h10M110 174h60M0 175h10M110 175h60M0 176h10M110 176h60M0 177h10M110 177h60M0 178h10M110 178h60M0 179h10M110 179h60M0 180h10M110 180h60M0 181h10M110 181h60M0 182h10M110 182h60M0 183h10M110 183h60M0 184h10M110 184h60M0 185h10M110 185h60M0 186h10M110 186h60M0 187h10M110 187h60M0 188h10M110 188h60M0 189h10M110 189h60M0 190h10M110 190h60M0 191h10M110 191h60M0 192h10M110 192h60M0 193h10M110 193h60M0 194h10M110 194h60M0 195h10M110 195h60M0 196h10M110 196h60M0 197h10M110 197h60M0 198h10M110 198h60M0 199h10M110 199h60M0 200h10M110 200h60M0 201h10M110 201h60M0 202h10M110 202h60M0 203h10M110 203h60M0 204h10M110 204h60M0 205h10M110 205h60M0 206h10M110 206h60M0 207h10M110 207h60M0 208h10M110 208h60M0 209h10M110 209h60M0 210h10M110 210h60M0 211h10M110 211h60M0 212h10M110 212h60M0 213h10M110 213h60M0 214h10M110 214h60M0 215h10M110 215h60M0 216h10M110 216h60M0 217h10M110 217h60M0 218h10M110 218h60M0 219h10M110 219h60M0 220h10M110 220h60M0 221h10M110 221h60M0 222h10M110 222h60M0 223h10M110 223h60M0 224h10M110 224h60M0 225h10M110 225h60M0 226h10M110 226h60M0 227h10M110 227h60M0 228h10M110 228h60M0 229h10M110 229h60M0 230h10M110 230h60M0 231h10M110 231h60M0 232h10M110 232h60M0 233h10M110 233h60M0 234h10M110 234h60M0 235h10M110 235h60M0 236h10M110 236h60M0 237h10M110 237h60M0 238h10M110 238h60M0 239h10M110 239h60M0 240h170M0 241h170M0 242h170M0 243h170M0 244h170M0 245h170M0 246h170M0 247h170M0 248h170M0 249h170" />
<path stroke="#000000" d="M10 10h100M10 11h100M10 12h100M10 13h100M10 14h100M10 15h100M10 16h100M10 17h100M10 18h100M10 19h100M10 20h100M120 20h40M10 21h100M120 21h40M10 22h100M120 22h40M10 23h100M120 23h40M10 24h100M120 24h40M10 25h100M120 25h40M10 26h100M120 26h40M10 27h100M120 27h40M10 28h100M120 28h40M10 29h100M120 29h40M120 30h40M120 31h40M120 32h40M120 33h40M120 34h40M120 35h40M120 36h40M120 37h40M120 38h40M120 39h40M10 40h100M120 40h40M10 41h100M120 41h40M10 42h100M120 42h40M10 43h100M120 43h40M10 44h100M120 44h40M10 45h100M120 45h40M10 46h100M120 46h40M10 47h100M120 47h40M10 48h100M120 48h40M10 49h100M120 49h40M10 50h100M10 51h100M10 52h100M10 53h100M10 54h100M10 55h100M10 56h100M10 57h100M10 58h100M10 59h100M10 60h100M120 60h40M10 61h100M120 61h40M10 62h100M120 62h40M10 63h100M120 63h40M10 64h100M120 64h40M10 65h100M120 65h40M10 66h100M120 66h40M10 67h100M120 67h40M10 68h100M120 68h40M10 69h100M120 69h40M10 70h100M120 70h40M10 71h100M120 71h40M10 72h100M120 72h40M10 73h100M120 73h40M10 74h100M120 74h40M10 75h100M120 75h40M10 76h100M120 76h40M10 77h100M120 77h40M10 78h100M120 78h40M10 79h100M120 79h40M10 80h100M120 80h40M10 81h100M120 81h40M10 82h100M120 82h40M10 83h100M120 83h40M10 84h100M120 84h40M10 85h100M120 85h40M10 86h100M120 86h40M10 87h100M120 87h40M10 88h100M120 88h40M10 89h100M120 89h40M10 90h100M10 91h100M10 92h100M10 93h100M10 94h100M10 95h100M10 96h100M10 97h100M10 98h100M10 99h100M10 100h100M120 100h40M10 101h100M120 101h40M10 102h100M120 102h40M10 103h100M120 103h40M10 104h100M120 104h40M10 105h100M120 105h40M10 106h100M120 106h40M10 107h100M120 107h40M10 108h100M120 108h40M10 109h100M120 109h40M10 110h100M120 110h40M10 111h100M120 111h40M10 112h100M120 112h40M10 113h100M120 113h40M10 114h100M120 114h40M10 115h100M120 115h40M10 116h100M120 116h40M10 117h100M120 117h40M10 118h100M120 118h40M10 119h100M120 119h40M10 120h100M120 120h40M10 121h100M120 121h40M10 122h100M120 122h40M10 123h100M120 123h40M10 124h100M120 124h40M10 125h100M120 125h40M10 126h100M120 126h40M10 127h100M120 127h40M10 128h100M120 128h40M10 129h100M120 129h40M10 130h100M10 131h100M10 132h100M10 133h100M10 134h100M10 135h100M10 136h100M10 137h100M10 138h100M10 139h100M10 140h100M10 141h100M10 142h100M10 143h100M10 144h100M10 145h100M10 146h100M10 147h100M10 148h100M10 149h100M10 150h100M10 151h100M10 152h100M10 153h100M10 154h100M10 155h100M10 156h100M10 157h100M10 158h100M10 159h100M10 160h100M10 161h100M10 162h100M10 163h100M10 164h100M10 165h100M10 166h100M10 167h100M10 168h100M10 169h100M10 170h100M10 171h100M10 172h100M10 173h100M10 174h100M10 175h100M10 176h100M10 177h100M10 178h100M10 179h100M10 180h100M10 181h100M10 182h100M10 183h100M10 184h100M10 185h100M10 186h100M10 187h100M10 188h100M10 189h100M10 190h100M10 191h100M10 192h100M10 193h100M10 194h100M10 195h100M10 196h100M10 197h100M10 198h100M10 199h100M10 200h100M10 201h100M10 202h100M10 203h100M10 204h100M10 205h100M10 206h100M10 207h100M10 208h100M10 209h100M10 210h100M10 211h100M10 212h100M10 213h100M10 214h100M10 215h100M10 216h100M10 217h100M10 218h100M10 219h100M10 220h100M10 221h100M10 222h100M10 223h100M10 224h100M10 225h100M10 226h100M10 227h100M10 228h100M10 229h100M10 230h100M10 231h100M10 232h100M10 233h100M10 234h100M10 235h100M10 236h100M10 237h100M10 238h100M10 239h100" />
</svg>